# xmcd
#
# Track frame offsets: 
#        150
#        15505
#        37915
#        53350
#        69269
#        88090
#        102812
#        117785
#        137982
#        158966
#        176796
#        194333
#        214854
#        232609
#        251150
#        271523
#        289028
#        313305
#
# Disc length: 4388 seconds
#
# Revision: 0
# Processed by: cddbd v1.5.2PL0 Copyright (c) Steve Scherf et al.
# Submitted via: ExactAudioCopy v0.99pb5
#
DISCID=f0112212
DTITLE=Regine Velasquez - 18 Greatest Hits - Volume 1
DYEAR=2009
DGENRE=Ballad
TTITLE0=Kailangan Ko'y Ikaw
TTITLE1=Dadalhin
TTITLE2=Narito Ako
TTITLE3=In Your Eyes
TTITLE4=Each Day With You
TTITLE5=Fallin'
TTITLE6=Ikaw
TTITLE7=Kung Maibabalik Ko Lang
TTITLE8=I Don't Want To Miss A Thing
TTITLE9=Emotion
TTITLE10=Maghihintay Ako Sa 'yo
TTITLE11=Pangako
TTITLE12=Kastilyong Buhangin
TTITLE13=On The Wings Of Love
TTITLE14=Hang On
TTITLE15=Shine
TTITLE16=Ikaw Ang Lahat Sa Akin
TTITLE17=Urong Sulong
EXTD=
EXTT0=
EXTT1=
EXTT2=
EXTT3=
EXTT4=
EXTT5=
EXTT6=
EXTT7=
EXTT8=
EXTT9=
EXTT10=
EXTT11=
EXTT12=
EXTT13=
EXTT14=
EXTT15=
EXTT16=
EXTT17=
PLAYORDER=
